<svg xmlns="http://www.w3.org/2000/svg" viewBox="0 0 767.74 316"><defs><style>.cls-1{font-size:192px;fill:#754c24;font-family:MyriadPro-Regular, Myriad Pro;}.cls-2{fill:#000;}.cls-3{fill:none;stroke:#000;stroke-miterlimit:10;stroke-width:13px;}</style></defs><title>Asset 5</title><g id="Layer_2" data-name="Layer 2"><g id="Layer_1-2" data-name="Layer 1"><text class="cls-1" transform="translate(131.51 209.87) scale(1.35 1)">L <tspan class="cls-2" x="131.32" y="0">aine</tspan></text><path class="cls-3" d="M536.32,228c-58.24,32.75-162.77,50.51-308.74,50.51-43,0-83.38-.46-111.17-2.22V41c29.05-2.22,72-4,128.85-4,139.55,0,236.29,16.1,291.06,44.19V69.91H647.13c-17.25-9.84-38.06-18.55-62-26.25C510.55,19.33,398.12,6.5,240.21,6.5,153,6.5,73.46,9.15,6.5,12.7V306c55.59,2.2,121.28,3.53,199.6,3.53,165.49,0,296.87-15,376.46-42.9a354.35,354.35,0,0,0,45.4-19H536.32Z"/></g></g></svg>